<svg xmlns="http://www.w3.org/2000/svg" width="529" height="453" viewBox="0 0 529 453"><rect width="529" height="453" fill="#393b4a"/><line y1="66.718" x2="46.016" transform="matrix(-0.105, -0.995, 0.995, -0.105, 137.15, 403.039)" fill="none" stroke="#dcb9a5" stroke-linecap="round" stroke-width="3"/><line y1="5.431" x2="47.976" transform="translate(121.193 356.619) rotate(-145)" fill="none" stroke="#dcb9a5" stroke-linecap="round" stroke-width="3"/><line y1="1.955" x2="17.271" transform="translate(67.199 323.321) rotate(-145)" fill="none" stroke="#dcb9a5" stroke-linecap="round" stroke-width="3"/><line y1="53.717" x2="42.447" transform="translate(383.5 70.783)" fill="none" stroke="rgba(220,185,165,0.45)" stroke-linecap="round" stroke-width="3"/><line x1="6" y1="20" transform="translate(118.5 133.5)" fill="none" stroke="#dcb9a5" stroke-linecap="round" stroke-width="2"/><line y1="66.718" x2="46.016" transform="translate(292.004 232.431) rotate(-59)" fill="none" stroke="#dcb9a5" stroke-linecap="round" stroke-width="3"/><line y1="5.431" x2="47.976" transform="translate(307.197 185.755) rotate(-108)" fill="none" stroke="#dcb9a5" stroke-linecap="round" stroke-width="3"/><path d="M7,0l7,12.5L7,25,0,12.5Z" transform="matrix(0.996, 0.087, -0.087, 0.996, 324.114, 397.481)" fill="rgba(192,125,100,0.77)"/><path d="M7,0l7,12.5L7,25,0,12.5Z" transform="matrix(-0.07, -0.998, 0.998, -0.07, 429.017, 234.398)" fill="rgba(212,156,135,0.41)"/><path d="M11.5,0,23,22,11.5,44,0,22Z" transform="matrix(0.559, 0.829, -0.829, 0.559, 99.166, 53.664)" fill="rgba(192,125,100,0.61)"/><path d="M5,0l5,9L5,18,0,9Z" transform="matrix(0.946, -0.326, 0.326, 0.946, 220.31, 225.004)" fill="#d49c87"/><path d="M7,0l7,12.5L7,25,0,12.5Z" transform="matrix(0.978, -0.208, 0.208, 0.978, 296.552, 23.772)" fill="rgba(212,156,135,0.69)"/><line x1="0.448" y1="21.085" transform="translate(481.052 346.415)" fill="none" stroke="#dcb9a5" stroke-linecap="round" stroke-width="3"/><path d="M8,0l8,14L8,28,0,14Z" transform="translate(477.784 98.318) rotate(32)" fill="rgba(192,125,100,0.53)"/><line y1="34.405" x2="23.34" transform="matrix(0.951, 0.309, -0.309, 0.951, 176.684, 56.582)" fill="none" stroke="#dcb9a5" stroke-linecap="round" stroke-width="3"/><line y1="2.983" x2="24.587" transform="translate(209.451 53.593) rotate(-31)" fill="none" stroke="#dcb9a5" stroke-linecap="round" stroke-width="3"/><path d="M7,0l7,12.5L7,25,0,12.5Z" transform="translate(30.867 196.795) rotate(171)" fill="rgba(212,156,135,0.49)"/><path d="M11.5,0,23,22,11.5,44,0,22Z" transform="translate(64.647 354.955) rotate(19)" fill="#c07d64"/><line x1="30.796" y1="50.512" transform="translate(479.704 30.988)" fill="none" stroke="#dcb9a5" stroke-linecap="round" stroke-width="3"/><path d="M7,0l7,12.5L7,25,0,12.5Z" transform="translate(147.851 246.896) rotate(160)" fill="rgba(212,156,135,0.2)"/></svg>